# xmcd CD database file
#
# Track frame offsets:
#	150
#	19305
#	36304
#	52414
#	69813
#	87749
#	103607
#	123007
#	139959
#	159971
#	178240
#	200062
#	213982
#	231041
#	256093
#	270950
#	294302
#	321979
#	324079
#	326293
#	328213
#	330374
#	332164
#
# Disc length: 4440 seconds
#
# Revision: 3
# Processed by: cddbd v1.5PL3 Copyright (c) Steve Scherf et al.
# Submitted via: CDex 1.51
#
DISCID=52115617
DTITLE=Various Artist - Isabell Werth präsentiert Musical Highlights
DYEAR=1900
DGENRE=
TTITLE0=I know him so well
TTITLE1=With one look
TTITLE2=Memories
TTITLE3=One Night in Bangkok
TTITLE4=Be our guest
TTITLE5=Cabaret
TTITLE6=Tonight
TTITLE7=With a little bit of luck on the street where you live
TTITLE8=Das Phantom der Oper
TTITLE9=One (A Chorus Line)
TTITLE10=Fame
TTITLE11=42nd Street
TTITLE12=Jesus Christ Superstar
TTITLE13=America
TTITLE14=Time Warp
TTITLE15=L - Kür 20 x 40
TTITLE16=M - Kür 20 x 60
TTITLE17=Das Phantom der Oper
TTITLE18=America
TTITLE19=Be our guest
TTITLE20=One (A Chorus Line)
TTITLE21=Jesus Christ Superstar
TTITLE22=Cabaret
EXTD=
EXTT0=
EXTT1=
EXTT2=
EXTT3=
EXTT4=
EXTT5=
EXTT6=
EXTT7=
EXTT8=
EXTT9=
EXTT10=
EXTT11=
EXTT12=
EXTT13=
EXTT14=
EXTT15=
EXTT16=
EXTT17=
EXTT18=
EXTT19=
EXTT20=
EXTT21=
EXTT22=
PLAYORDER=
